<svg xmlns="http://www.w3.org/2000/svg" width="24" height="24"><svg viewBox="-15 -15 330 330"><path fill="#333" stroke="transparent" stroke-width="10" d="m95.22337,299.53546c-10.68459,-4.81824 3.25798,-14.45154 8.53654,-18.71286c3.55556,-3.28177 -20.37717,0.46036 -10.27298,-10.93198c11.08577,-9.30692 6.89815,-25.05217 -4.18282,-32.37115c-15.24973,-10.2968 -34.81611,-19.10942 -40.44992,-38.33635c-5.69662,-11.9756 7.81301,-24.58835 -0.87631,-35.40263c-6.99412,-14.0412 1.177,-28.68323 6.25594,-41.69022c2.33568,-17.99253 -11.97227,-32.2212 -19.84076,-47.00306c-9.74298,-14.12588 -15.35928,-30.58578 -16.16633,-47.73895c-2.11884,-7.3217 0.22601,-18.6921 8.68694,-8.82097c17.71845,14.18765 37.17033,27.65002 49.57116,47.06949c2.34735,7.01447 11.74658,27.34441 12.27144,8.93449c0.24582,-25.30315 7.97399,-52.90002 27.77682,-69.85634c13.46954,-12.2734 20.73361,9.21683 21.36209,20.13735c3.50587,21.487 -2.30553,42.79486 -8.78146,63.09225c-2.37738,9.43285 -8.56868,35.2823 9.08899,25.75117c40.67693,-15.70451 89.96005,0.78945 116.45525,34.52606c12.17961,16.33485 17.5135,37.32133 17.39308,57.47189c-6.27155,11.83836 17.03061,-0.22177 8.58704,13.43613c-4.97064,15.1297 -19.01465,23.33925 -28.85207,34.75906c-10.01038,9.15085 -2.58298,28.71576 -19.13725,31.59863c-24.15469,7.44629 -49.5191,10.70804 -74.66498,12.6066c-14.07156,2.88287 -20.90056,-13.20758 -7.41347,-19.89679c6.46608,-9.96799 24.96535,-10.66653 30.46185,-12.24564c-13.13484,1.28516 -29.33337,-4.0759 -40.40141,4.05872c-6.70294,10.88138 -12.07141,25.20364 -26.12755,28.30951c-6.3168,1.75439 -12.8116,3.16129 -19.27982,1.25558z"></path></svg></svg>